<svg class="logo" xmlns="http://www.w3.org/2000/svg" xmlns:xlink="http://www.w3.org/1999/xlink" width="500"
    zoomAndPan="magnify" viewBox="0 0 375 374.999991" height="500" preserveAspectRatio="xMidYMid meet" version="1.0">
    <defs>
        <clipPath id="42530b22f5">
            <path
                d="M 225.441406 112.664062 L 322.601562 112.664062 L 322.601562 268.363281 L 225.441406 268.363281 Z M 225.441406 112.664062 "
                clip-rule="nonzero" />
        </clipPath>
        <clipPath id="379e8b1d6c">
            <path
                d="M 155.085938 89.523438 L 258.121094 89.523438 L 258.121094 279.554688 L 155.085938 279.554688 Z M 155.085938 89.523438 "
                clip-rule="nonzero" />
        </clipPath>
        <clipPath id="7a01363bd2">
            <path
                d="M 52.449219 89.523438 L 155.347656 89.523438 L 155.347656 279.554688 L 52.449219 279.554688 Z M 52.449219 89.523438 "
                clip-rule="nonzero" />
        </clipPath>
        <clipPath id="f83424c04d">
            <path
                d="M 185.367188 112.664062 L 239.054688 112.664062 L 239.054688 150.246094 L 185.367188 150.246094 Z M 185.367188 112.664062 "
                clip-rule="nonzero" />
        </clipPath>
        <clipPath id="c82e7a3023">
            <path d="M 185.367188 118 L 187 118 L 187 150.246094 L 185.367188 150.246094 Z M 185.367188 118 "
                clip-rule="nonzero" />
        </clipPath>
        <clipPath id="4a661783a8">
            <path
                d="M 195.449219 112.664062 L 207.976562 112.664062 L 207.976562 150.246094 L 195.449219 150.246094 Z M 195.449219 112.664062 "
                clip-rule="nonzero" />
        </clipPath>
        <clipPath id="fce7b61f26">
            <path d="M 256 265 L 285 265 L 285 279 L 256 279 Z M 256 265 " clip-rule="nonzero" />
        </clipPath>
        <clipPath id="4626ff4883">
            <path
                d="M 262.4375 278.375 L 256.402344 268.082031 L 278.527344 255.105469 L 284.5625 265.398438 Z M 262.4375 278.375 "
                clip-rule="nonzero" />
        </clipPath>
        <clipPath id="0ae32f4d6a">
            <path
                d="M 262.632812 356.402344 L 222.5 287.960938 L 283.222656 252.355469 L 323.355469 320.796875 Z M 262.632812 356.402344 "
                clip-rule="nonzero" />
        </clipPath>
        <clipPath id="4904498802">
            <path d="M 263 237 L 317 237 L 317 280 L 263 280 Z M 263 237 " clip-rule="nonzero" />
        </clipPath>
        <clipPath id="e9d4fc71b9">
            <path
                d="M 267.691406 237.464844 L 316.976562 242.214844 L 312.796875 285.558594 L 263.511719 280.808594 Z M 267.691406 237.464844 "
                clip-rule="nonzero" />
        </clipPath>
        <clipPath id="15c2882fc4">
            <path
                d="M 164.894531 126.625 L 326.402344 142.191406 L 312.554688 285.886719 L 151.042969 270.320312 Z M 164.894531 126.625 "
                clip-rule="nonzero" />
        </clipPath>
    </defs>
    <g clip-path="url(#42530b22f5)">
        <path fill="#d5ac4e"
            d="M 237.082031 112.664062 L 129.96875 112.664062 C 129.96875 112.664062 151.546875 125.929688 151.546875 147.886719 L 151.546875 283.742188 L 152.539062 283.742188 C 153.371094 283.363281 154.1875 282.960938 155 282.546875 C 160.875 279.554688 166.210938 275.765625 170.828125 271.34375 C 174.511719 267.816406 177.734375 263.894531 180.425781 259.632812 C 186.199219 250.511719 189.511719 239.890625 189.511719 228.554688 L 189.511719 150.632812 L 237.082031 150.632812 C 255.136719 150.632812 270.839844 160.683594 278.902344 175.503906 C 278.90625 175.507812 278.90625 175.519531 278.914062 175.53125 C 280.65625 178.734375 282.042969 182.171875 283.007812 185.769531 C 283.015625 185.78125 283.015625 185.785156 283.019531 185.792969 C 283.019531 185.800781 283.019531 185.8125 283.027344 185.824219 L 283.027344 185.828125 C 285.273438 192.953125 286.484375 200.53125 286.484375 208.394531 C 286.484375 247.058594 257.203125 278.886719 219.609375 282.914062 C 219.855469 283.183594 220.101562 283.460938 220.34375 283.742188 L 237.082031 283.742188 C 260.707031 283.742188 282.089844 274.167969 297.570312 258.691406 C 313.046875 243.207031 322.621094 221.824219 322.621094 198.203125 C 322.621094 150.960938 284.324219 112.664062 237.082031 112.664062 "
            fill-opacity="1" fill-rule="nonzero" />
    </g>
    <g clip-path="url(#379e8b1d6c)">
        <path fill="#d5ac4e"
            d="M 258.179688 279.554688 L 225.640625 225.128906 C 241.425781 198.828125 243.523438 169.179688 234.902344 144.109375 C 231.953125 135.53125 229.113281 127.332031 228.277344 120.09375 C 225.933594 99.773438 234.902344 89.523438 234.902344 89.523438 C 234.902344 89.523438 215.191406 101.539062 218.394531 129.675781 C 219.039062 135.34375 222.101562 144.867188 223.277344 152.195312 C 234.652344 223.089844 155.316406 248.171875 155.316406 248.171875 L 155.316406 279.554688 C 175.753906 271.988281 192.136719 261.917969 204.835938 250.335938 L 222.304688 279.554688 L 258.179688 279.554688 "
            fill-opacity="1" fill-rule="nonzero" />
    </g>
    <path fill="#d5ac4e"
        d="M 207.140625 194.179688 L 155.316406 107.492188 L 155.316406 167.5 L 185.691406 218.3125 C 193.652344 212.238281 201.5625 204.285156 207.140625 194.179688 "
        fill-opacity="1" fill-rule="nonzero" />
    <g clip-path="url(#7a01363bd2)">
        <path fill="#d5ac4e"
            d="M 87.351562 152.195312 C 88.527344 144.867188 91.59375 135.34375 92.238281 129.675781 C 95.4375 101.539062 75.730469 89.523438 75.730469 89.523438 C 75.730469 89.523438 84.699219 99.773438 82.351562 120.09375 C 81.515625 127.332031 78.679688 135.53125 75.730469 144.109375 C 67.105469 169.179688 69.203125 198.828125 84.988281 225.128906 L 52.449219 279.554688 L 88.324219 279.554688 L 105.792969 250.335938 C 118.496094 261.917969 134.878906 271.988281 155.316406 279.554688 L 155.316406 248.171875 C 155.316406 248.171875 75.980469 223.089844 87.351562 152.195312 "
            fill-opacity="1" fill-rule="nonzero" />
    </g>
    <path fill="#d5ac4e"
        d="M 103.738281 193.765625 C 109.253906 203.929688 117.132812 211.9375 125.089844 218.0625 L 155.316406 167.5 L 155.316406 107.492188 L 103.738281 193.765625 "
        fill-opacity="1" fill-rule="nonzero" />
    <g clip-path="url(#f83424c04d)">
        <path fill="#d5ac4e"
            d="M 246.59375 321.28125 L 208.171875 257.007812 C 226.8125 225.949219 229.289062 190.9375 219.105469 161.332031 C 215.621094 151.203125 212.269531 141.523438 211.285156 132.972656 C 208.511719 108.976562 219.105469 96.875 219.105469 96.875 C 219.105469 96.875 195.832031 111.0625 199.609375 144.289062 C 200.371094 150.984375 203.992188 162.230469 205.378906 170.882812 C 218.808594 254.601562 125.125 284.21875 125.125 284.21875 L 125.125 321.28125 C 149.257812 312.34375 168.605469 300.449219 183.601562 286.773438 L 204.230469 321.28125 L 246.59375 321.28125 "
            fill-opacity="1" fill-rule="nonzero" />
    </g>
    <g clip-path="url(#c82e7a3023)">
        <path fill="#d5ac4e"
            d="M 186.324219 220.460938 L 125.125 118.09375 L 125.125 188.953125 L 160.996094 248.957031 C 170.390625 241.785156 179.734375 232.394531 186.324219 220.460938 "
            fill-opacity="1" fill-rule="nonzero" />
    </g>
    <g clip-path="url(#4a661783a8)">
        <path fill="#d5ac4e"
            d="M 195.625 150.289062 L 195.625 112.761719 L 207.976562 112.722656 C 207.976562 112.722656 205.550781 115.304688 203.664062 118.914062 C 200.234375 125.484375 198.90625 136.394531 202.625 140.652344 C 206.347656 144.921875 204.761719 150.289062 204.761719 150.289062 Z M 195.625 150.289062 "
            fill-opacity="1" fill-rule="evenodd" />
    </g>
    <g clip-path="url(#fce7b61f26)">
        <g clip-path="url(#4626ff4883)">
            <g clip-path="url(#0ae32f4d6a)">
                <path fill="#d5ac4e"
                    d="M 240.324219 318.355469 L 262.621094 356.378906 C 262.621094 356.378906 262.835938 345.960938 270.632812 341.390625 L 318.859375 313.113281 L 318.652344 312.757812 C 318.34375 312.542969 318.03125 312.335938 317.714844 312.132812 C 315.429688 310.671875 312.976562 309.566406 310.445312 308.847656 C 308.425781 308.273438 306.363281 307.945312 304.289062 307.875 C 299.851562 307.726562 295.390625 308.761719 291.367188 311.121094 L 263.703125 327.339844 L 253.800781 310.453125 C 250.042969 304.046875 250.34375 296.378906 253.925781 290.429688 C 253.925781 290.429688 253.929688 290.425781 253.933594 290.421875 C 254.707031 289.136719 255.640625 287.929688 256.714844 286.835938 C 256.71875 286.832031 256.71875 286.832031 256.722656 286.828125 C 256.722656 286.824219 256.730469 286.824219 256.730469 286.816406 L 256.734375 286.816406 C 258.792969 284.539062 261.230469 282.53125 264.023438 280.894531 C 277.75 272.84375 295.140625 276.613281 304.398438 289.121094 C 304.441406 288.976562 304.488281 288.832031 304.539062 288.6875 L 301.054688 282.746094 C 296.136719 274.359375 288.289062 268.761719 279.570312 266.488281 C 270.851562 264.214844 261.269531 265.269531 252.882812 270.1875 C 236.113281 280.019531 230.492188 301.585938 240.324219 318.355469 "
                    fill-opacity="1" fill-rule="nonzero" />
            </g>
        </g>
    </g>
    <g clip-path="url(#4904498802)">
        <g clip-path="url(#e9d4fc71b9)">
            <g clip-path="url(#15c2882fc4)">
                <path fill="#d5ac4e"
                    d="M 254.808594 135.292969 L 164.9375 126.628906 C 164.9375 126.628906 181.964844 139.503906 180.191406 157.925781 L 169.203125 271.914062 L 170.035156 271.992188 C 170.765625 271.742188 171.484375 271.472656 172.199219 271.191406 C 177.371094 269.152344 182.152344 266.40625 186.386719 263.070312 C 189.761719 260.410156 192.78125 257.375 195.386719 254.019531 C 200.964844 246.835938 204.605469 238.191406 205.519531 228.679688 L 211.824219 163.296875 L 251.738281 167.144531 C 266.882812 168.605469 279.246094 178.308594 284.8125 191.398438 C 284.816406 191.398438 284.816406 191.410156 284.820312 191.417969 C 286.023438 194.25 286.910156 197.242188 287.425781 200.339844 C 287.433594 200.351562 287.433594 200.355469 287.433594 200.363281 C 287.4375 200.367188 287.4375 200.378906 287.441406 200.390625 L 287.441406 200.394531 C 288.746094 206.550781 289.152344 213.007812 288.515625 219.605469 C 285.386719 252.046875 258.25 276.382812 226.378906 276.722656 C 226.566406 276.96875 226.75 277.222656 226.925781 277.476562 L 240.972656 278.828125 C 260.792969 280.738281 279.507812 274.4375 293.75 262.703125 C 307.988281 250.960938 317.75 233.792969 319.660156 213.976562 C 323.480469 174.339844 294.445312 139.113281 254.808594 135.292969 "
                    fill-opacity="1" fill-rule="nonzero" />
            </g>
        </g>
    </g>
</svg>