<svg xmlns="http://www.w3.org/2000/svg" xmlns:xlink="http://www.w3.org/1999/xlink" width="500" zoomAndPan="magnify" viewBox="0 0 375 374.999991" height="500" preserveAspectRatio="xMidYMid meet" version="1.0"><defs><clipPath id="b89831507d"><path d="M 187.085938 14.65625 L 368.34375 14.65625 L 368.34375 348.757812 L 187.085938 348.757812 Z M 187.085938 14.65625 " clip-rule="nonzero"/></clipPath><clipPath id="2511a8b593"><path d="M 6.640625 14.65625 L 187.542969 14.65625 L 187.542969 348.757812 L 6.640625 348.757812 Z M 6.640625 14.65625 " clip-rule="nonzero"/></clipPath></defs><g clip-path="url(#b89831507d)"><path fill="#d5ac4e" d="M 368.339844 348.757812 L 311.132812 253.066406 C 338.890625 206.824219 342.574219 154.699219 327.417969 110.621094 C 322.230469 95.539062 317.242188 81.128906 315.769531 68.394531 C 311.644531 32.671875 327.417969 14.65625 327.417969 14.65625 C 327.417969 14.65625 292.761719 35.78125 298.390625 85.242188 C 299.523438 95.210938 304.914062 111.957031 306.980469 124.835938 C 326.972656 249.484375 187.492188 293.578125 187.492188 293.578125 L 187.492188 348.757812 C 223.421875 335.449219 252.226562 317.746094 274.558594 297.386719 L 305.269531 348.757812 L 368.339844 348.757812 " fill-opacity="1" fill-rule="nonzero"/></g><path fill="#d5ac4e" d="M 278.605469 198.65625 L 187.492188 46.246094 L 187.492188 151.746094 L 240.898438 241.082031 C 254.890625 230.402344 268.800781 216.421875 278.605469 198.65625 " fill-opacity="1" fill-rule="nonzero"/><g clip-path="url(#2511a8b593)"><path fill="#d5ac4e" d="M 68 124.835938 C 70.066406 111.957031 75.457031 95.210938 76.59375 85.242188 C 82.21875 35.78125 47.566406 14.65625 47.566406 14.65625 C 47.566406 14.65625 63.335938 32.671875 59.210938 68.394531 C 57.742188 81.128906 52.75 95.539062 47.566406 110.621094 C 32.40625 154.699219 36.09375 206.824219 63.847656 253.066406 L 6.640625 348.757812 L 69.710938 348.757812 L 100.425781 297.386719 C 122.753906 317.746094 151.558594 335.449219 187.492188 348.757812 L 187.492188 293.578125 C 187.492188 293.578125 48.007812 249.484375 68 124.835938 " fill-opacity="1" fill-rule="nonzero"/></g><path fill="#d5ac4e" d="M 96.8125 197.925781 C 106.507812 215.796875 120.359375 229.871094 134.347656 240.640625 L 187.492188 151.746094 L 187.492188 46.246094 L 96.8125 197.925781 " fill-opacity="1" fill-rule="nonzero"/></svg>