<?xml version="1.0" standalone="no"?>
<svg xmlns="http://www.w3.org/2000/svg" viewBox="0 0 1440 220">
    <path fill="#f0f0f0" fill-opacity="1"
        d="M0,288L30,256C60,224,120,160,180,154.7C240,149,300,203,360,186.7C420,171,480,85,540,74.7C600,64,660,128,720,144C780,160,840,128,900,144C960,160,1020,224,1080,213.3C1140,203,1200,117,1260,101.3C1320,85,1380,139,1410,165.3L1440,192L1440,0L1410,0C1380,0,1320,0,1260,0C1200,0,1140,0,1080,0C1020,0,960,0,900,0C840,0,780,0,720,0C660,0,600,0,540,0C480,0,420,0,360,0C300,0,240,0,180,0C120,0,60,0,30,0L0,0Z">
    </path>
</svg>