<svg width="100%" height="150%" id="svg" viewBox="0 0 1440 690" xmlns="http://www.w3.org/2000/svg"
    class="transition duration-300 ease-in-out delay-150">
    <path
        d="M 0,700 L 0,262 C 55.29289396170839,309.49245213549335 110.58578792341677,356.9849042709867 170,361 C 229.41421207658323,365.0150957290133 292.94974226804123,325.5528350515464 364,283 C 435.05025773195877,240.44716494845358 513.6152430044183,194.8037555228277 567,171 C 620.3847569955817,147.1962444771723 648.5892857142856,145.23214285714286 712,170 C 775.4107142857144,194.76785714285714 874.027614138439,246.26767304860095 931,261 C 987.972385861561,275.73232695139905 1003.3002577319587,253.69716494845358 1051,256 C 1098.6997422680413,258.3028350515464 1178.7713549337263,284.9436671575847 1249,290 C 1319.2286450662737,295.0563328424153 1379.6143225331368,278.52816642120763 1440,262 L 1440,700 L 0,700 Z"
        stroke="none" stroke-width="0" fill="#f0f0f0" fill-opacity="1"
        class="transition-all duration-300 ease-in-out delay-150 path-0" transform="rotate(-180 720 350)"></path>
</svg>