<svg xmlns="http://www.w3.org/2000/svg" xmlns:xlink="http://www.w3.org/1999/xlink" width="500" zoomAndPan="magnify"
    viewBox="0 0 375 374.999991" height="500" preserveAspectRatio="xMidYMid meet" version="1.0">
    <defs>
        <g />
        <clipPath id="912ac21ba2">
            <path
                d="M 42.90625 151.078125 L 75.375 151.078125 L 75.375 210.921875 L 42.90625 210.921875 Z M 42.90625 151.078125 "
                clip-rule="nonzero" />
        </clipPath>
        <clipPath id="03820cf09a">
            <path
                d="M 10.585938 151.078125 L 42.988281 151.078125 L 42.988281 210.921875 L 10.585938 210.921875 Z M 10.585938 151.078125 "
                clip-rule="nonzero" />
        </clipPath>
        <clipPath id="2ccfe9ee56">
            <path
                d="M 201.402344 157.003906 L 262.152344 157.003906 L 262.152344 211 L 201.402344 211 Z M 201.402344 157.003906 "
                clip-rule="nonzero" />
        </clipPath>
    </defs>
    <g clip-path="url(#912ac21ba2)">
        <path fill="#c69d3f"
            d="M 75.375 210.921875 L 65.125 193.78125 C 70.097656 185.5 70.757812 176.164062 68.042969 168.269531 C 67.113281 165.566406 66.21875 162.984375 65.957031 160.703125 C 65.21875 154.304688 68.042969 151.078125 68.042969 151.078125 C 68.042969 151.078125 61.835938 154.863281 62.84375 163.722656 C 63.046875 165.507812 64.011719 168.507812 64.382812 170.8125 C 67.964844 193.140625 42.980469 201.039062 42.980469 201.039062 L 42.980469 210.921875 C 49.414062 208.539062 54.574219 205.367188 58.574219 201.71875 L 64.074219 210.921875 L 75.375 210.921875 "
            fill-opacity="1" fill-rule="nonzero" />
    </g>
    <path fill="#c69d3f"
        d="M 59.300781 184.035156 L 42.980469 156.738281 L 42.980469 175.632812 L 52.546875 191.636719 C 55.050781 189.722656 57.542969 187.21875 59.300781 184.035156 "
        fill-opacity="1" fill-rule="nonzero" />
    <g clip-path="url(#03820cf09a)">
        <path fill="#d5ac4e"
            d="M 21.578125 170.8125 C 21.945312 168.507812 22.914062 165.507812 23.117188 163.722656 C 24.125 154.863281 17.917969 151.078125 17.917969 151.078125 C 17.917969 151.078125 20.742188 154.304688 20.003906 160.703125 C 19.738281 162.984375 18.84375 165.566406 17.917969 168.269531 C 15.203125 176.164062 15.863281 185.5 20.832031 193.78125 L 10.585938 210.921875 L 21.882812 210.921875 L 27.382812 201.71875 C 31.382812 205.367188 36.542969 208.539062 42.980469 210.921875 L 42.980469 201.039062 C 42.980469 201.039062 17.996094 193.140625 21.578125 170.8125 "
            fill-opacity="1" fill-rule="nonzero" />
    </g>
    <path fill="#d5ac4e"
        d="M 26.738281 183.90625 C 28.472656 187.105469 30.957031 189.628906 33.460938 191.558594 L 42.980469 175.632812 L 42.980469 156.738281 L 26.738281 183.90625 "
        fill-opacity="1" fill-rule="nonzero" />
    <g fill="#000000" fill-opacity="1">
        <g transform="translate(259.909133, 207.127363)">
            <g>
                <path
                    d="M 12.148438 -16.574219 L 16.527344 -27.359375 L 16.761719 -27.972656 C 16.953125 -28.488281 17.09375 -29.054688 17.09375 -29.523438 C 17.09375 -30.75 16.105469 -31.691406 14.785156 -31.691406 C 13.136719 -31.691406 12.148438 -30.796875 11.207031 -28.535156 L 1.222656 -3.859375 L 0.941406 -3.25 C 0.753906 -2.730469 0.613281 -2.167969 0.613281 -1.695312 C 0.613281 -0.472656 1.601562 0.421875 2.917969 0.421875 C 4.378906 0.421875 5.554688 -0.421875 6.261719 -2.070312 L 6.5 -2.683594 L 9.042969 -9.042969 C 10.171875 -11.679688 11.441406 -12.996094 13.042969 -12.996094 C 14.03125 -12.996094 14.785156 -12.480469 14.785156 -11.679688 C 14.785156 -11.300781 14.691406 -10.925781 14.363281 -10.21875 L 12.289062 -5.039062 L 12.007812 -4.425781 C 11.867188 -4.003906 11.773438 -3.53125 11.773438 -3.015625 C 11.773438 -1.269531 13.183594 0 15.210938 0 L 20.390625 0 C 22.226562 0 23.734375 -1.320312 23.734375 -2.964844 C 23.734375 -4.285156 22.886719 -4.992188 21.378906 -5.039062 L 18.175781 -5.039062 L 20.625 -11.019531 C 20.90625 -11.773438 21.144531 -12.855469 21.144531 -13.609375 C 21.144531 -16.058594 19.023438 -17.894531 16.152344 -17.894531 C 14.785156 -17.894531 14.171875 -17.707031 12.148438 -16.574219 Z M 12.148438 -16.574219 " />
            </g>
        </g>
    </g>
    <g fill="#000000" fill-opacity="1">
        <g transform="translate(283.917436, 207.127363)">
            <g>
                <path
                    d="M 16.292969 -5.039062 L 19.636719 -13.183594 C 20.152344 -14.457031 20.25 -14.785156 20.25 -15.445312 C 20.25 -16.621094 19.164062 -17.5625 17.847656 -17.5625 C 16.527344 -17.5625 15.679688 -17.09375 14.878906 -15.867188 C 13.9375 -17.234375 12.527344 -17.894531 10.59375 -17.894531 C 5.460938 -17.894531 0.613281 -12.429688 0.613281 -6.59375 C 0.613281 -2.683594 2.871094 0 6.121094 0 L 8.898438 0 C 10.078125 0 10.832031 -0.28125 11.820312 -1.175781 L 12.242188 -1.554688 C 12.714844 -0.472656 13.515625 0 14.878906 0 L 18.410156 0 C 20.25 0 21.753906 -1.320312 21.753906 -2.964844 C 21.753906 -4.285156 20.90625 -4.992188 19.402344 -5.039062 Z M 10.925781 -6.167969 C 10.6875 -5.605469 9.558594 -4.898438 8.851562 -4.898438 L 7.957031 -4.898438 C 6.78125 -4.898438 6.027344 -5.746094 6.027344 -7.203125 C 6.027344 -10.03125 8.617188 -13.277344 10.925781 -13.277344 C 12.054688 -13.277344 12.996094 -12.527344 12.996094 -11.632812 C 12.996094 -11.347656 12.949219 -11.066406 12.808594 -10.785156 L 12.667969 -10.40625 Z M 10.925781 -6.167969 " />
            </g>
        </g>
    </g>
    <g fill="#000000" fill-opacity="1">
        <g transform="translate(305.901512, 207.127363)">
            <g>
                <path
                    d="M 15.117188 -9.699219 L 18.507812 -12.242188 C 20.25 -13.515625 20.71875 -14.222656 20.71875 -15.445312 C 20.71875 -16.714844 19.777344 -17.660156 18.507812 -17.660156 C 17.707031 -17.660156 17.09375 -17.375 15.726562 -16.386719 L 10.546875 -12.574219 L 16.433594 -27.027344 L 16.667969 -27.640625 C 16.90625 -28.160156 17.046875 -28.722656 17.046875 -29.195312 C 17.046875 -30.417969 16.011719 -31.410156 14.691406 -31.410156 C 13.230469 -31.410156 12.054688 -30.511719 11.300781 -28.820312 L 11.066406 -28.207031 L 1.222656 -3.957031 L 0.988281 -3.296875 C 0.753906 -2.777344 0.613281 -2.214844 0.613281 -1.742188 C 0.613281 -0.519531 1.648438 0.421875 2.964844 0.421875 C 4.660156 0.421875 5.652344 -0.421875 6.59375 -2.730469 L 9.183594 -9.136719 L 14.503906 -1.128906 L 14.785156 -0.707031 C 15.210938 -0.046875 15.773438 0.28125 16.480469 0.28125 C 17.941406 0.28125 19.355469 -1.035156 19.355469 -2.402344 C 19.355469 -2.964844 19.210938 -3.296875 18.648438 -4.144531 Z M 15.117188 -9.699219 " />
            </g>
        </g>
    </g>
    <g fill="#000000" fill-opacity="1">
        <g transform="translate(326.614561, 207.127363)">
            <g>
                <path
                    d="M 16.292969 -5.039062 L 19.636719 -13.183594 C 20.152344 -14.457031 20.25 -14.785156 20.25 -15.445312 C 20.25 -16.621094 19.164062 -17.5625 17.847656 -17.5625 C 16.527344 -17.5625 15.679688 -17.09375 14.878906 -15.867188 C 13.9375 -17.234375 12.527344 -17.894531 10.59375 -17.894531 C 5.460938 -17.894531 0.613281 -12.429688 0.613281 -6.59375 C 0.613281 -2.683594 2.871094 0 6.121094 0 L 8.898438 0 C 10.078125 0 10.832031 -0.28125 11.820312 -1.175781 L 12.242188 -1.554688 C 12.714844 -0.472656 13.515625 0 14.878906 0 L 18.410156 0 C 20.25 0 21.753906 -1.320312 21.753906 -2.964844 C 21.753906 -4.285156 20.90625 -4.992188 19.402344 -5.039062 Z M 10.925781 -6.167969 C 10.6875 -5.605469 9.558594 -4.898438 8.851562 -4.898438 L 7.957031 -4.898438 C 6.78125 -4.898438 6.027344 -5.746094 6.027344 -7.203125 C 6.027344 -10.03125 8.617188 -13.277344 10.925781 -13.277344 C 12.054688 -13.277344 12.996094 -12.527344 12.996094 -11.632812 C 12.996094 -11.347656 12.949219 -11.066406 12.808594 -10.785156 L 12.667969 -10.40625 Z M 10.925781 -6.167969 " />
            </g>
        </g>
    </g>
    <g fill="#000000" fill-opacity="1">
        <g transform="translate(348.598636, 207.127363)">
            <g>
                <path
                    d="M 7.015625 -5.039062 L 15.917969 -27.027344 L 16.199219 -27.640625 C 16.386719 -28.160156 16.527344 -28.769531 16.527344 -29.242188 C 16.527344 -30.417969 15.492188 -31.410156 14.222656 -31.410156 C 12.714844 -31.410156 11.535156 -30.511719 10.832031 -28.820312 L 10.59375 -28.207031 L 1.320312 -5.367188 C 0.894531 -4.378906 0.613281 -3.4375 0.613281 -2.824219 C 0.613281 -1.128906 2.117188 0 4.332031 0 L 8.992188 0 C 10.832031 0 12.335938 -1.320312 12.335938 -2.964844 C 12.335938 -4.285156 11.488281 -4.992188 9.984375 -5.039062 Z M 7.015625 -5.039062 " />
            </g>
        </g>
    </g>
    <g clip-path="url(#2ccfe9ee56)">
        <path fill="#c69d3f"
            d="M 235.183594 157.003906 L 201.417969 157.003906 C 201.417969 157.003906 208.21875 161.183594 208.21875 168.105469 L 208.21875 210.933594 L 208.53125 210.933594 C 208.792969 210.8125 209.050781 210.6875 209.308594 210.554688 C 211.160156 209.613281 212.84375 208.417969 214.296875 207.023438 C 215.457031 205.910156 216.476562 204.675781 217.324219 203.332031 C 219.144531 200.457031 220.1875 197.109375 220.1875 193.535156 L 220.1875 168.96875 L 235.183594 168.96875 C 240.875 168.96875 245.824219 172.140625 248.367188 176.8125 C 248.367188 176.8125 248.367188 176.816406 248.371094 176.820312 C 248.921875 177.828125 249.355469 178.914062 249.660156 180.046875 C 249.664062 180.050781 249.664062 180.050781 249.664062 180.054688 C 249.664062 180.058594 249.664062 180.0625 249.667969 180.066406 C 250.375 182.3125 250.757812 184.699219 250.757812 187.179688 C 250.757812 199.367188 241.527344 209.402344 229.675781 210.671875 C 229.753906 210.757812 229.832031 210.84375 229.90625 210.933594 L 235.183594 210.933594 C 242.632812 210.933594 249.371094 207.914062 254.25 203.035156 C 259.132812 198.152344 262.148438 191.414062 262.148438 183.96875 C 262.148438 169.074219 250.078125 157.003906 235.183594 157.003906 "
            fill-opacity="1" fill-rule="nonzero" />
    </g>
    <g fill="#000000" fill-opacity="1">
        <g transform="translate(76.389037, 207.127363)">
            <g>
                <path
                    d="M 16.292969 -5.039062 L 19.636719 -13.183594 C 20.152344 -14.457031 20.25 -14.785156 20.25 -15.445312 C 20.25 -16.621094 19.164062 -17.5625 17.847656 -17.5625 C 16.527344 -17.5625 15.679688 -17.09375 14.878906 -15.867188 C 13.9375 -17.234375 12.527344 -17.894531 10.59375 -17.894531 C 5.460938 -17.894531 0.613281 -12.429688 0.613281 -6.59375 C 0.613281 -2.683594 2.871094 0 6.121094 0 L 8.898438 0 C 10.078125 0 10.832031 -0.28125 11.820312 -1.175781 L 12.242188 -1.554688 C 12.714844 -0.472656 13.515625 0 14.878906 0 L 18.410156 0 C 20.25 0 21.753906 -1.320312 21.753906 -2.964844 C 21.753906 -4.285156 20.90625 -4.992188 19.402344 -5.039062 Z M 10.925781 -6.167969 C 10.6875 -5.605469 9.558594 -4.898438 8.851562 -4.898438 L 7.957031 -4.898438 C 6.78125 -4.898438 6.027344 -5.746094 6.027344 -7.203125 C 6.027344 -10.03125 8.617188 -13.277344 10.925781 -13.277344 C 12.054688 -13.277344 12.996094 -12.527344 12.996094 -11.632812 C 12.996094 -11.347656 12.949219 -11.066406 12.808594 -10.785156 L 12.667969 -10.40625 Z M 10.925781 -6.167969 " />
            </g>
        </g>
    </g>
    <g fill="#000000" fill-opacity="1">
        <g transform="translate(98.373113, 207.127363)">
            <g>
                <path
                    d="M 15.117188 -9.699219 L 18.507812 -12.242188 C 20.25 -13.515625 20.71875 -14.222656 20.71875 -15.445312 C 20.71875 -16.714844 19.777344 -17.660156 18.507812 -17.660156 C 17.707031 -17.660156 17.09375 -17.375 15.726562 -16.386719 L 10.546875 -12.574219 L 16.433594 -27.027344 L 16.667969 -27.640625 C 16.90625 -28.160156 17.046875 -28.722656 17.046875 -29.195312 C 17.046875 -30.417969 16.011719 -31.410156 14.691406 -31.410156 C 13.230469 -31.410156 12.054688 -30.511719 11.300781 -28.820312 L 11.066406 -28.207031 L 1.222656 -3.957031 L 0.988281 -3.296875 C 0.753906 -2.777344 0.613281 -2.214844 0.613281 -1.742188 C 0.613281 -0.519531 1.648438 0.421875 2.964844 0.421875 C 4.660156 0.421875 5.652344 -0.421875 6.59375 -2.730469 L 9.183594 -9.136719 L 14.503906 -1.128906 L 14.785156 -0.707031 C 15.210938 -0.046875 15.773438 0.28125 16.480469 0.28125 C 17.941406 0.28125 19.355469 -1.035156 19.355469 -2.402344 C 19.355469 -2.964844 19.210938 -3.296875 18.648438 -4.144531 Z M 15.117188 -9.699219 " />
            </g>
        </g>
    </g>
    <g fill="#000000" fill-opacity="1">
        <g transform="translate(119.086162, 207.127363)">
            <g>
                <path
                    d="M 16.292969 -5.039062 L 19.636719 -13.183594 C 20.152344 -14.457031 20.25 -14.785156 20.25 -15.445312 C 20.25 -16.621094 19.164062 -17.5625 17.847656 -17.5625 C 16.527344 -17.5625 15.679688 -17.09375 14.878906 -15.867188 C 13.9375 -17.234375 12.527344 -17.894531 10.59375 -17.894531 C 5.460938 -17.894531 0.613281 -12.429688 0.613281 -6.59375 C 0.613281 -2.683594 2.871094 0 6.121094 0 L 8.898438 0 C 10.078125 0 10.832031 -0.28125 11.820312 -1.175781 L 12.242188 -1.554688 C 12.714844 -0.472656 13.515625 0 14.878906 0 L 18.410156 0 C 20.25 0 21.753906 -1.320312 21.753906 -2.964844 C 21.753906 -4.285156 20.90625 -4.992188 19.402344 -5.039062 Z M 10.925781 -6.167969 C 10.6875 -5.605469 9.558594 -4.898438 8.851562 -4.898438 L 7.957031 -4.898438 C 6.78125 -4.898438 6.027344 -5.746094 6.027344 -7.203125 C 6.027344 -10.03125 8.617188 -13.277344 10.925781 -13.277344 C 12.054688 -13.277344 12.996094 -12.527344 12.996094 -11.632812 C 12.996094 -11.347656 12.949219 -11.066406 12.808594 -10.785156 L 12.667969 -10.40625 Z M 10.925781 -6.167969 " />
            </g>
        </g>
    </g>
    <g fill="#000000" fill-opacity="1">
        <g transform="translate(141.070237, 207.127363)">
            <g>
                <path
                    d="M 8.617188 -11.300781 L 9.652344 -9.324219 C 10.078125 -8.429688 10.21875 -8.003906 10.21875 -7.394531 C 10.21875 -5.792969 9.183594 -5.039062 7.015625 -5.039062 L 3.8125 -5.039062 C 1.976562 -5.039062 0.472656 -3.671875 0.472656 -2.070312 C 0.472656 -0.753906 1.320312 -0.046875 2.824219 0 L 8.523438 0 C 8.757812 0 9.230469 -0.046875 9.9375 -0.234375 C 11.300781 -0.519531 11.867188 -0.707031 12.480469 -1.082031 C 14.457031 -2.355469 15.726562 -4.613281 15.726562 -6.921875 C 15.726562 -8.570312 15.070312 -10.265625 13.75 -12.148438 L 12.429688 -13.984375 C 11.679688 -15.019531 11.347656 -15.917969 11.347656 -16.90625 C 11.347656 -17.1875 11.394531 -17.515625 11.441406 -17.847656 C 11.535156 -18.269531 11.582031 -18.601562 11.582031 -18.789062 C 11.582031 -19.824219 10.546875 -20.671875 9.371094 -20.671875 C 8.195312 -20.671875 7.347656 -20.011719 6.59375 -18.507812 L 3.53125 -12.289062 C 3.109375 -11.441406 2.871094 -10.640625 2.871094 -10.125 C 2.871094 -9.042969 4.050781 -8.003906 5.320312 -8.003906 C 6.546875 -8.003906 7.535156 -8.804688 8.144531 -10.265625 Z M 8.617188 -11.300781 " />
            </g>
        </g>
    </g>
    <g fill="#000000" fill-opacity="1">
        <g transform="translate(157.923119, 207.127363)">
            <g>
                <path
                    d="M 12.148438 -16.574219 L 16.527344 -27.359375 L 16.761719 -27.972656 C 16.953125 -28.488281 17.09375 -29.054688 17.09375 -29.523438 C 17.09375 -30.75 16.105469 -31.691406 14.785156 -31.691406 C 13.136719 -31.691406 12.148438 -30.796875 11.207031 -28.535156 L 1.222656 -3.859375 L 0.941406 -3.25 C 0.753906 -2.730469 0.613281 -2.167969 0.613281 -1.695312 C 0.613281 -0.472656 1.601562 0.421875 2.917969 0.421875 C 4.378906 0.421875 5.554688 -0.421875 6.261719 -2.070312 L 6.5 -2.683594 L 9.042969 -9.042969 C 10.171875 -11.679688 11.441406 -12.996094 13.042969 -12.996094 C 14.03125 -12.996094 14.785156 -12.480469 14.785156 -11.679688 C 14.785156 -11.300781 14.691406 -10.925781 14.363281 -10.21875 L 12.289062 -5.039062 L 12.007812 -4.425781 C 11.867188 -4.003906 11.773438 -3.53125 11.773438 -3.015625 C 11.773438 -1.269531 13.183594 0 15.210938 0 L 20.390625 0 C 22.226562 0 23.734375 -1.320312 23.734375 -2.964844 C 23.734375 -4.285156 22.886719 -4.992188 21.378906 -5.039062 L 18.175781 -5.039062 L 20.625 -11.019531 C 20.90625 -11.773438 21.144531 -12.855469 21.144531 -13.609375 C 21.144531 -16.058594 19.023438 -17.894531 16.152344 -17.894531 C 14.785156 -17.894531 14.171875 -17.707031 12.148438 -16.574219 Z M 12.148438 -16.574219 " />
            </g>
        </g>
    </g>
</svg>